<svg width="30" height="24" viewBox="0 0 30 24" fill="none" xmlns="http://www.w3.org/2000/svg">
<path d="M13.25 7.01039V7.49376L13.7331 7.5101C22.5172 7.80737 29.5 14.5071 29.5001 22.625C29.5001 22.6944 29.4444 22.7501 29.375 22.7501C29.3057 22.7501 29.25 22.6944 29.25 22.625C29.25 21.7647 28.7658 20.9654 28.0089 20.2749C27.2472 19.5798 26.1579 18.9446 24.8119 18.4024C22.1166 17.3166 18.3027 16.5682 13.757 16.5044L13.25 16.4973V17.0043V21.3751C13.25 22.1329 12.6328 22.7501 11.875 22.7501C11.5388 22.7501 11.2106 22.6214 10.9533 22.3821L10.9523 22.3813L10.1455 21.6348L10.1454 21.6348L10.0956 21.5887C7.43192 19.124 3.03849 15.0588 0.787036 12.8014C0.616804 12.6289 0.5 12.3545 0.5 12C0.5 11.6453 0.616942 11.3711 0.786781 11.1995C3.04011 8.93961 7.43959 4.8689 10.1027 2.40478L10.1454 2.36525L10.1455 2.36522L10.9523 1.61877L10.9533 1.61792C11.2106 1.37863 11.5388 1.25 11.875 1.25C12.6328 1.25 13.25 1.8672 13.25 2.625V7.01039ZM28.0886 20.0452L29.2484 21.0611L28.9055 19.5579C27.3632 12.7963 20.8507 7.75 13.1251 7.75C13.0557 7.75 13 7.69431 13 7.62498V2.625C13 2.00364 12.4951 1.49998 11.875 1.49998C11.5151 1.49998 11.2603 1.67414 11.1227 1.80155C11.1227 1.80159 11.1226 1.80164 11.1226 1.80168L10.316 2.54848L10.3158 2.54862L10.3019 2.56145C7.65591 5.00936 3.22764 9.10607 0.966223 11.374C0.857809 11.4814 0.811144 11.6133 0.789623 11.6907C0.763117 11.786 0.74998 11.891 0.74998 12C0.74998 12.1091 0.763162 12.2141 0.78961 12.3092C0.811422 12.3877 0.857952 12.518 0.964325 12.6247C3.22391 14.8904 7.65041 18.9855 10.2976 21.4346L10.3158 21.4514L10.3159 21.4515L11.1226 22.1985C11.26 22.3256 11.5148 22.5 11.875 22.5C12.495 22.5 13 21.9963 13 21.375V16.375C13 16.3057 13.0557 16.25 13.125 16.25C16.5137 16.25 19.6271 16.6416 22.2139 17.3171C24.81 17.9951 26.8369 18.9488 28.0886 20.0452Z" fill="black" stroke="#F0EDEE"/>
</svg>
