<svg width="30" height="24" viewBox="0 0 30 24" fill="none" xmlns="http://www.w3.org/2000/svg">
<path d="M16.75 7.01039V7.49376L16.2669 7.5101C7.48283 7.80737 0.5 14.5071 0.499943 22.625C0.499943 22.6944 0.555635 22.7501 0.62496 22.7501C0.694288 22.7501 0.749981 22.6944 0.749981 22.625C0.749981 21.7647 1.23423 20.9654 1.99106 20.2749C2.75277 19.5798 3.84215 18.9446 5.18806 18.4024C7.88344 17.3166 11.6973 16.5682 16.243 16.5044L16.75 16.4973V17.0043V21.3751C16.75 22.1329 17.3672 22.7501 18.125 22.7501C18.4612 22.7501 18.7894 22.6214 19.0467 22.3821L19.0477 22.3813L19.8545 21.6348L19.8546 21.6348L19.9044 21.5887C22.5681 19.124 26.9615 15.0588 29.213 12.8014C29.3832 12.6289 29.5 12.3545 29.5 12C29.5 11.6453 29.3831 11.3711 29.2132 11.1995C26.9599 8.93961 22.5604 4.8689 19.8973 2.40478L19.8546 2.36525L19.8545 2.36522L19.0477 1.61877L19.0467 1.61792C18.7894 1.37863 18.4612 1.25 18.125 1.25C17.3672 1.25 16.75 1.8672 16.75 2.625V7.01039ZM1.91143 20.0452L0.751612 21.0611L1.09449 19.5579C2.63677 12.7963 9.1493 7.75 16.8749 7.75C16.9443 7.75 17 7.69431 17 7.62498V2.625C17 2.00364 17.5049 1.49998 18.125 1.49998C18.4849 1.49998 18.7397 1.67414 18.8773 1.80155C18.8773 1.80159 18.8774 1.80164 18.8774 1.80168L19.684 2.54848L19.6842 2.54862L19.6981 2.56145C22.3441 5.00936 26.7724 9.10607 29.0338 11.374C29.1422 11.4814 29.1889 11.6133 29.2104 11.6907C29.2369 11.786 29.25 11.891 29.25 12C29.25 12.1091 29.2368 12.2141 29.2104 12.3092C29.1886 12.3877 29.142 12.518 29.0357 12.6247C26.7761 14.8904 22.3496 18.9855 19.7024 21.4346L19.6842 21.4514L19.6841 21.4515L18.8774 22.1985C18.74 22.3256 18.4852 22.5 18.125 22.5C17.505 22.5 17 21.9963 17 21.375V16.375C17 16.3057 16.9443 16.25 16.875 16.25C13.4863 16.25 10.3729 16.6416 7.78608 17.3171C5.18999 17.9951 3.16308 18.9488 1.91143 20.0452Z" fill="black" stroke="#F0EDEE"/>
</svg>
