<svg width="114" height="37" viewBox="0 0 114 37" fill="none" xmlns="http://www.w3.org/2000/svg">
<path d="M21.7552 23.9673C27.8427 30.7858 24.2917 34.663 21.7552 36H34.4374C24.4286 26.9275 28.1533 18.3965 30.3791 14.9427L31.7887 17.4672C33.3038 27.9134 44.6269 30.0014 46.5 29.5C48.3731 28.9986 55.8765 31.6724 57.2654 32.9918C65.382 33.4932 67.9184 27.9782 69.4403 26.4741C70.6578 25.2708 69.6094 23.9672 68.933 23.4659L65.8893 21.9618C61.831 18.9536 65.382 20.4577 63.8601 15.444C62.3383 10.4304 49.5147 7.99727 48.5002 9C47.4856 10.0027 44.5832 12.4358 43.0613 13.9399C41.8438 15.1432 40.5249 14.107 40.0176 13.4386C39.6794 12.9372 39.6118 10.3076 40.0176 7.5C40.4234 4.69235 32.9156 3.24413 29.3645 2.40852C25.9826 1.74003 17.7984 1.40579 12.1168 5.41671C6.43515 9.42764 3.50017 15.5 4.00017 16C4.50017 16.5 16.2109 20.1174 16.6824 23.9673H21.7552Z" fill="white" stroke="black" stroke-width="0.5"/>
<path d="M3.05531 13.728C1.09455 10.918 -0.269227 6.19163 7.70826 7.50192C12.9816 2.9621 26.9716 -3.70494 40.7443 5.94542C42.6055 5.16716 46.607 4.3889 47.7237 7.50192H48.6543C49.74 5.81571 52.842 3.14371 56.5644 5.94542C57.0296 5.94542 57.9602 6.64585 57.9602 9.44757C60.5969 9.83669 66.1494 12.7941 67.2661 21.5105L70.9885 23.4562C72.6946 26.4395 74.897 32.3283 70.0579 32.017C65.2188 31.7057 64.0091 32.1467 64.0091 32.4061C61.9928 33.3141 57.6811 35.13 56.5644 35.13L54.7032 35.9082H35.1608C30.818 32.5487 23.8076 23.7207 30.5078 15.2845H32.369C33.4547 20.862 38.0456 31.0831 47.7237 27.3474C50.7301 27.3474 56.353 28.6736 56.6152 33.774C64.8452 32.6892 68.3856 28.7782 69.1271 26.9583C71.3605 25.4018 68.5067 22.9373 66.8006 21.8996H65.4047C63.5436 21.277 63.6987 19.046 64.0089 18.0084V17.6192C64.7533 12.6384 56.2539 9.31786 51.9112 8.28018H51.4459H47.7235L47.7237 8.66931C48.0339 8.5396 48.468 8.51366 47.7237 9.44757C46.9794 10.3815 44.0013 12.6903 42.6053 13.728C39.6274 14.6619 39.5033 10.7447 39.8135 8.66931C40.1238 8.5396 40.6512 8.04671 40.2788 7.1128C39.9064 6.17889 36.4013 4.38891 34.6953 3.61065C32.6171 2.27485 25.79 1.44334 22.8689 1.77826C22.8689 1.77826 14.6487 4.11302 11.7018 5.2804C7.51413 7.64407 5.84697 11.3932 4.45109 13.728C3.33438 15.5958 3.98579 16.841 4.45109 17.2301C5.75074 16.3306 7.16406 16.0771 7.70826 16.0627C13.6641 15.1288 15.7733 21.3808 16.0835 24.6235H21.667C27.995 29.2931 24.3037 34.0923 21.667 35.9082H20.2711H12.8264H8.63874C6.40533 36.5308 3.98586 33.8329 3.05531 32.4061C-0.667053 26.18 1.50432 20.2134 3.05531 18.0084V13.728Z" fill="#2C666E"/>
<path d="M50.9806 18.0084C46.5136 23.3005 50.9805 25.9206 53.7724 26.5692C56.4541 27.0174 60.7969 23.0188 61.2171 21.1214C61.4088 20.2556 60.9069 19.046 60.2865 18.3975C57.6808 15.2845 52.9969 16.841 50.9806 18.0084Z" fill="#2C666E"/>
<path d="M67.2661 23.8453C66.1496 23.8453 65.2498 24.3641 64.9394 24.6235C64.7843 24.883 64.4742 25.5574 64.4742 26.18C64.4742 26.9583 66.8006 26.9583 67.2659 26.9583C67.6382 26.9583 68.0414 25.9206 68.1965 25.4018C68.3516 24.883 68.3827 23.8453 67.2661 23.8453Z" fill="#2C666E"/>
<path d="M56.5644 35.13C57.6811 35.13 61.9928 33.3141 64.0091 32.4061C64.0091 32.1467 65.2188 31.7057 70.0579 32.017C74.897 32.3283 72.6946 26.4395 70.9885 23.4562L67.2661 21.5105C66.1494 12.7941 60.5969 9.83669 57.9602 9.44756C57.9602 6.64585 57.0296 5.94542 56.5644 5.94542C52.842 3.14371 49.74 5.81571 48.6543 7.50192H47.7237C46.607 4.3889 42.6055 5.16716 40.7443 5.94542C26.9716 -3.70494 12.9816 2.9621 7.70826 7.50192C-0.269227 6.19163 1.09455 10.918 3.05531 13.728V18.0084C1.50432 20.2134 -0.667053 26.1801 3.05531 32.4061C3.98586 33.8329 6.40533 36.5308 8.63874 35.9082H12.8264M56.5644 35.13C56.6216 34.6508 56.6371 34.1993 56.6152 33.774M56.5644 35.13L54.7032 35.9082H35.1608C30.818 32.5487 23.8076 23.7207 30.5078 15.2845H32.369C33.4547 20.862 38.0456 31.0831 47.7237 27.3474C50.7301 27.3474 56.353 28.6736 56.6152 33.774M56.6152 33.774C64.8452 32.6892 68.3856 28.7782 69.1271 26.9583C71.3605 25.4018 68.5067 22.9373 66.8006 21.8996H65.4047C63.5436 21.277 63.6987 19.046 64.0089 18.0084V17.6192C64.7533 12.6384 56.2539 9.31786 51.9112 8.28018H51.4459H47.7235L47.7237 8.66931C48.0339 8.5396 48.468 8.51366 47.7237 9.44756C46.9794 10.3815 44.0013 12.6903 42.6053 13.728C39.6274 14.6619 39.5033 10.7447 39.8135 8.66931C40.1238 8.5396 40.6512 8.04671 40.2788 7.1128C39.9064 6.17889 36.4013 4.38891 34.6953 3.61065C32.6171 2.27485 25.79 1.44334 22.8689 1.77826C22.8689 1.77826 14.6487 4.11302 11.7018 5.2804C7.51413 7.64407 5.84697 11.3932 4.45109 13.728C3.33438 15.5958 3.98579 16.841 4.45109 17.2301C5.75074 16.3306 7.16406 16.0771 7.70826 16.0627C13.6641 15.1288 15.7733 21.3808 16.0835 24.6235H21.667C27.995 29.2931 24.3037 34.0923 21.667 35.9082H20.2711M12.8264 35.9082C12.206 33.7032 12.6403 29.0596 19.3405 28.1257C26.0408 27.1918 22.7527 32.9249 20.2711 35.9082M12.8264 35.9082H20.2711M53.7724 26.5692C50.9805 25.9206 46.5136 23.3005 50.9806 18.0084C52.9969 16.841 57.6808 15.2845 60.2865 18.3975C60.9069 19.046 61.4088 20.2556 61.2171 21.1214C60.7969 23.0188 56.4541 27.0174 53.7724 26.5692ZM64.9394 24.6235C65.2498 24.3641 66.1496 23.8453 67.2661 23.8453C68.3827 23.8453 68.3516 24.883 68.1965 25.4018C68.0414 25.9206 67.6382 26.9583 67.2659 26.9583C66.8006 26.9583 64.4742 26.9583 64.4742 26.1801C64.4742 25.5574 64.7843 24.883 64.9394 24.6235Z" stroke="black"/>
<path d="M20.077 35.6324H12.6323C13.0046 30.3402 16.82 28.4984 18.6812 28.2389C25.3814 27.305 22.4035 32.7788 20.077 35.6324Z" fill="white"/>
<path d="M55.4394 20.4564H54.9741V20.8455L55.4394 20.4564Z" fill="black" stroke="black"/>
<path d="M85.8384 20.003L85.8383 17.1842C81.8652 14.9291 77.5176 16.6577 76 18C75.1723 18.6711 72.8378 21.6177 73.5 27.4164C74.1622 33.2151 82.8892 33.2081 86.6141 32L86.6662 24.4325H81.6997V27H84.1828V29.5C81.2857 30.0369 75.8378 30.5534 76.5 24.4325C77.1622 18.3117 82.9412 18.9292 85.8384 20.003Z" fill="#BEFFC7"/>
<path d="M89.5632 32.4863V17.1842H98.2547V19.5H95H92.0465V24.4325H97.4269V27H94.5H92.5V29.5V32.4863H89.5632Z" fill="#BEFFC7"/>
<path d="M104 17L100 17L102 21L104 24.5L99.5 33H104L106 26.5L108.601 33H112.5L108.5 24.5L110 21.5L112.5 17.1842H108.601L106 23L105 20L104 17Z" fill="#BEFFC7"/>
<path d="M85.8384 20.003L85.8383 17.1842C81.8652 14.9291 77.5176 16.6577 76 18C75.1723 18.6711 72.8378 21.6177 73.5 27.4164C74.1622 33.2151 82.8892 33.2081 86.6141 32L86.6662 24.4325H81.6997V27H84.1828V29.5C81.2857 30.0369 75.8378 30.5534 76.5 24.4325C77.1622 18.3117 82.9412 18.9292 85.8384 20.003Z" stroke="black"/>
<path d="M89.5632 32.4863V17.1842H98.2547V19.5H95H92.0465V24.4325H97.4269V27H94.5H92.5V29.5V32.4863H89.5632Z" stroke="black"/>
<path d="M104 17L100 17L102 21L104 24.5L99.5 33H104L106 26.5L108.601 33H112.5L108.5 24.5L110 21.5L112.5 17.1842H108.601L106 23L105 20L104 17Z" stroke="black"/>
</svg>
