<svg width="16" height="19" viewBox="0 0 16 19" fill="none" xmlns="http://www.w3.org/2000/svg">
<path d="M8 3.62667V0L3 4.53333L8 9.06667V5.44C11.3 5.44 14 7.888 14 10.88C14 13.872 11.3 16.32 8 16.32C4.7 16.32 2 13.872 2 10.88H0C0 14.8693 3.6 18.1333 8 18.1333C12.4 18.1333 16 14.8693 16 10.88C16 6.89067 12.4 3.62667 8 3.62667Z" fill="#F0EDEE"/>
<path d="M7.682 13.406V14H5.39V13.406H6.242V11.312C6.206 11.36 6.15 11.41 6.074 11.462C5.998 11.514 5.914 11.562 5.822 11.606C5.73 11.65 5.634 11.688 5.534 11.72C5.434 11.748 5.346 11.762 5.27 11.762V11.144C5.35 11.144 5.442 11.12 5.546 11.072C5.654 11.024 5.756 10.968 5.852 10.904C5.952 10.84 6.038 10.776 6.11 10.712C6.186 10.648 6.23 10.602 6.242 10.574H6.92V13.406H7.682ZM11.2022 12.242C11.2022 12.506 11.1622 12.75 11.0822 12.974C11.0062 13.194 10.8982 13.386 10.7582 13.55C10.6222 13.71 10.4602 13.836 10.2722 13.928C10.0882 14.016 9.88622 14.06 9.66622 14.06C9.44622 14.06 9.24222 14.016 9.05422 13.928C8.86622 13.836 8.70422 13.71 8.56822 13.55C8.43222 13.386 8.32422 13.194 8.24422 12.974C8.16822 12.75 8.13022 12.506 8.13022 12.242C8.13022 11.978 8.16822 11.736 8.24422 11.516C8.32422 11.292 8.43222 11.1 8.56822 10.94C8.70422 10.776 8.86622 10.648 9.05422 10.556C9.24222 10.464 9.44622 10.418 9.66622 10.418C9.88622 10.418 10.0882 10.464 10.2722 10.556C10.4602 10.648 10.6222 10.776 10.7582 10.94C10.8982 11.1 11.0062 11.292 11.0822 11.516C11.1622 11.736 11.2022 11.978 11.2022 12.242ZM10.5302 12.242C10.5302 12.062 10.5082 11.898 10.4642 11.75C10.4242 11.602 10.3642 11.474 10.2842 11.366C10.2082 11.258 10.1162 11.176 10.0082 11.12C9.90422 11.06 9.79022 11.03 9.66622 11.03C9.53422 11.03 9.41422 11.06 9.30622 11.12C9.20222 11.176 9.11022 11.258 9.03022 11.366C8.95422 11.474 8.89422 11.602 8.85022 11.75C8.81022 11.898 8.79022 12.062 8.79022 12.242C8.79022 12.422 8.81022 12.586 8.85022 12.734C8.89422 12.882 8.95422 13.01 9.03022 13.118C9.11022 13.222 9.20222 13.304 9.30622 13.364C9.41422 13.42 9.53422 13.448 9.66622 13.448C9.79022 13.448 9.90422 13.42 10.0082 13.364C10.1162 13.304 10.2082 13.222 10.2842 13.118C10.3642 13.01 10.4242 12.882 10.4642 12.734C10.5082 12.586 10.5302 12.422 10.5302 12.242Z" fill="#F0EDEE"/>
</svg>
