<svg width="24" height="24" viewBox="0 0 24 24" fill="none" xmlns="http://www.w3.org/2000/svg">
<path d="M21.4659 12L23.6704 9.79551C24.1097 9.35615 24.1097 8.64389 23.6704 8.20453C23.231 7.76517 22.5188 7.76517 22.0794 8.20453L19.8749 10.409L17.6705 8.20453C17.2311 7.76517 16.5188 7.76517 16.0795 8.20453C15.6402 8.64389 15.6402 9.35615 16.0795 9.79551L18.284 12L16.0795 14.2045C15.6402 14.6438 15.6402 15.3561 16.0795 15.7955C16.2991 16.0152 16.587 16.125 16.875 16.125C17.1629 16.125 17.4508 16.0152 17.6705 15.7955L19.8749 13.591L22.0794 15.7955C22.2991 16.0152 22.587 16.125 22.8749 16.125C23.1629 16.125 23.4507 16.0152 23.6704 15.7955C24.1098 15.3562 24.1098 14.6439 23.6704 14.2045L21.4659 12Z" fill="#F0EDEE"/>
<path d="M4.64062 7.5H2.0625C0.923391 7.5 0 8.42339 0 9.5625V14.4375C0 15.5766 0.923391 16.5 2.0625 16.5H4.64062C4.77005 16.5 4.875 16.395 4.875 16.2656V7.73438C4.875 7.60495 4.77005 7.5 4.64062 7.5Z" fill="#F0EDEE"/>
<path d="M13.125 2.625H12C11.753 2.625 11.5129 2.70628 11.3167 2.85633L6.46702 6.56489C6.40903 6.60923 6.375 6.67805 6.375 6.75108V17.249C6.375 17.322 6.40903 17.3908 6.46702 17.4352L11.3167 21.1437C11.5129 21.2937 11.753 21.375 12 21.375H13.125C13.7463 21.375 14.25 20.8714 14.25 20.25V3.75C14.25 3.12867 13.7463 2.625 13.125 2.625Z" fill="#F0EDEE"/>
</svg>
