<svg width="16" height="23" viewBox="0 0 16 23" fill="none" xmlns="http://www.w3.org/2000/svg">
<path d="M10.6665 0H15.4598C15.7581 0 15.9999 0.241825 15.9999 0.540084V21.5359C15.9999 21.8341 15.7581 22.0759 15.4598 22.0759H10.6665C10.3683 22.0759 10.1265 21.8341 10.1265 21.5359V0.540084C10.1265 0.241825 10.3683 0 10.6665 0Z" fill="#F0EDEE"/>
<path d="M0.540084 0H5.33333C5.63159 0 5.87342 0.241825 5.87342 0.540084V21.5359C5.87342 21.8341 5.63159 22.0759 5.33333 22.0759H0.540084C0.241825 22.0759 0 21.8341 0 21.5359V0.540084C0 0.241825 0.241825 0 0.540084 0Z" fill="#F0EDEE"/>
</svg>
