<svg width="24" height="28" viewBox="0 0 24 28" fill="none" xmlns="http://www.w3.org/2000/svg">
<path d="M12 5.44V0L4.5 6.8L12 13.6V8.16C16.95 8.16 21 11.832 21 16.32C21 20.808 16.95 24.48 12 24.48C7.05 24.48 3 20.808 3 16.32H0C0 22.304 5.4 27.2 12 27.2C18.6 27.2 24 22.304 24 16.32C24 10.336 18.6 5.44 12 5.44Z" fill="#F0EDEE"/>
<path d="M12.7484 19.176C12.6734 19.244 12.5234 19.312 12.4484 19.38C12.3734 19.448 12.2234 19.448 12.0734 19.448C11.8484 19.448 11.6234 19.38 11.4734 19.244C11.3234 19.108 11.1734 18.972 11.1734 18.7H9.89844C9.89844 18.972 10.0484 19.244 10.1234 19.448C10.1984 19.652 10.3484 19.856 10.5734 19.992C10.7984 20.128 10.9484 20.264 11.2484 20.332C11.5484 20.4 11.7734 20.468 12.0734 20.468C12.4484 20.468 12.7484 20.4 13.0484 20.332C13.3484 20.264 13.5734 20.128 13.7234 19.924C13.8734 19.72 14.0234 19.584 14.0984 19.312C14.1734 19.04 14.2484 18.836 14.2484 18.564C14.2484 18.292 14.1734 18.02 14.0984 17.748C14.0234 17.476 13.8734 17.34 13.7234 17.136C13.5734 16.932 13.3484 16.796 13.1234 16.728C12.8984 16.66 12.5984 16.592 12.2984 16.592H11.9984C11.8484 16.592 11.7734 16.66 11.6984 16.66C11.6234 16.66 11.5484 16.728 11.4734 16.728C11.3984 16.728 11.3984 16.796 11.3234 16.796L11.4734 15.572H14.0234V14.62H10.4234L10.0484 17.544L11.0234 17.816L11.1734 17.68C11.2484 17.612 11.3234 17.476 11.3984 17.476C11.4734 17.476 11.6234 17.408 11.6234 17.408H11.9234C12.0734 17.408 12.2984 17.408 12.3734 17.476C12.4484 17.544 12.5234 17.544 12.6734 17.68C12.8234 17.816 12.8234 17.884 12.8984 18.02C12.9734 18.156 12.9734 18.292 12.9734 18.428C12.9734 18.564 12.8984 18.7 12.8984 18.836C12.8984 18.972 12.8234 19.108 12.7484 19.176Z" fill="#F0EDEE"/>
</svg>
