<svg width="58" height="56" viewBox="0 0 58 56" fill="none" xmlns="http://www.w3.org/2000/svg">
<path d="M57.7461 24.2786C57.8582 25.0938 57.934 25.9199 57.9719 26.7557L57.4724 26.7783C57.4907 27.1833 57.5 27.5906 57.5 28C57.5 28.4094 57.4907 28.8167 57.4724 29.2217L57.9719 29.2443C57.934 30.08 57.8582 30.9062 57.7461 31.7214L57.2508 31.6532C57.1391 32.4649 56.9908 33.2654 56.8075 34.053L57.2945 34.1664C57.1055 34.9779 56.8801 35.7761 56.62 36.5593L56.1455 36.4017C55.8881 37.1767 55.5959 37.9368 55.2709 38.6803L55.729 38.8806C55.3961 39.6421 55.0293 40.3864 54.6304 41.1117L54.1923 40.8708C53.7996 41.585 53.3752 42.2805 52.9209 42.9556L53.3357 43.2348C52.8727 43.9227 52.3794 44.5898 51.8574 45.2343L51.4688 44.9196C50.9566 45.5521 50.4162 46.1624 49.8495 46.7488L50.2091 47.0963C49.6337 47.6917 49.0318 48.2629 48.4051 48.8081L48.0769 48.4309C47.4635 48.9645 46.8259 49.4728 46.1659 49.9541L46.4604 50.3581C45.7924 50.8452 45.1019 51.305 44.3906 51.7359L44.1315 51.3082C43.4369 51.729 42.7222 52.1216 41.9891 52.4845L42.2108 52.9326C41.4709 53.2988 40.7124 53.6353 39.9373 53.9403L39.7542 53.475C38.9994 53.772 38.2284 54.0386 37.4429 54.2734L37.5861 54.7525C36.7967 54.9884 35.9929 55.1926 35.1763 55.3636L35.0738 54.8742C34.2819 55.0401 33.4775 55.1742 32.6624 55.2751L32.7238 55.7713C31.9075 55.8723 31.0807 55.9406 30.2446 55.9747L30.2243 55.4751C29.8183 55.4916 29.4102 55.5 29 55.5C28.5898 55.5 28.1817 55.4916 27.7757 55.4751L27.7554 55.9747C26.9193 55.9406 26.0925 55.8723 25.2762 55.7713L25.3376 55.2751C24.5225 55.1742 23.7182 55.0401 22.9262 54.8742L22.8237 55.3636C22.0071 55.1926 21.2033 54.9884 20.4139 54.7525L20.5571 54.2734C19.7716 54.0386 19.0006 53.772 18.2458 53.475L18.0627 53.9403C17.2876 53.6353 16.5291 53.2988 15.7892 52.9326L16.0109 52.4845C15.2778 52.1216 14.5631 51.729 13.8685 51.3082L13.6094 51.7359C12.8982 51.305 12.2076 50.8452 11.5396 50.3581L11.8342 49.9541C11.1741 49.4728 10.5365 48.9645 9.92307 48.4309L9.5949 48.8081C8.9682 48.2629 8.36627 47.6917 7.79091 47.0963L8.15047 46.7488C7.58381 46.1624 7.04345 45.5521 6.53117 44.9196L6.14263 45.2343C5.62065 44.5898 5.12726 43.9227 4.66433 43.2348L5.07915 42.9556C4.62483 42.2805 4.20042 41.585 3.8077 40.8708L3.36958 41.1117C2.97071 40.3864 2.6039 39.6421 2.27097 38.8806L2.7291 38.6803C2.40406 37.9368 2.11195 37.1768 1.85451 36.4017L1.38001 36.5593C1.11986 35.7761 0.894458 34.9779 0.705549 34.1664L1.19253 34.053C1.00918 33.2654 0.860858 32.4649 0.749219 31.6532L0.253883 31.7214C0.141771 30.9062 0.0659775 30.0801 0.0281251 29.2443L0.527613 29.2217C0.509269 28.8167 0.5 28.4094 0.5 28C0.5 27.5906 0.509269 27.1833 0.527613 26.7783L0.028125 26.7557C0.0659773 25.92 0.14177 25.0938 0.253882 24.2786L0.749219 24.3468C0.860857 23.5351 1.00918 22.7346 1.19253 21.947L0.705547 21.8336C0.894455 21.0221 1.11986 20.2239 1.38 19.4407L1.85451 19.5983C2.11194 18.8233 2.40406 18.0632 2.7291 17.3197L2.27097 17.1194C2.60389 16.3579 2.9707 15.6136 3.36958 14.8883L3.8077 15.1292C4.20042 14.415 4.62483 13.7195 5.07915 13.0444L4.66432 12.7652C5.12726 12.0773 5.62065 11.4102 6.14263 10.7657L6.53117 11.0804C7.04344 10.4479 7.58381 9.83761 8.15047 9.25116L7.79091 8.90372C8.36626 8.30827 8.9682 7.73708 9.5949 7.1919L9.92306 7.56914C10.5365 7.03548 11.1741 6.52717 11.8341 6.0459L11.5396 5.6419C12.2076 5.1548 12.8981 4.69496 13.6094 4.2641L13.8685 4.69176C14.5631 4.27103 15.2778 3.8784 16.0109 3.51553L15.7892 3.06741C16.5291 2.70116 17.2876 2.36472 18.0627 2.05973L18.2458 2.52501C19.0006 2.22803 19.7716 1.96137 20.5571 1.72661L20.4139 1.24755C21.2033 1.01164 22.0071 0.807408 22.8237 0.636385L22.9262 1.12577C23.7181 0.959898 24.5225 0.825789 25.3376 0.724902L25.2762 0.228688C26.0925 0.127665 26.9193 0.0594069 27.7554 0.0253231L27.7757 0.524908C28.1817 0.508359 28.5898 0.5 29 0.5C29.4102 0.5 29.8183 0.508359 30.2243 0.524908L30.2446 0.0253229C31.0807 0.0594067 31.9075 0.127665 32.7238 0.228688L32.6624 0.724902C33.4775 0.825788 34.2818 0.959897 35.0738 1.12577L35.1763 0.636384C35.9929 0.807406 36.7967 1.01164 37.5861 1.24754L37.4429 1.72661C38.2284 1.96137 38.9994 2.22802 39.7542 2.525L39.9373 2.05972C40.7124 2.36472 41.4709 2.70116 42.2108 3.06741L41.9891 3.51553C42.7222 3.8784 43.4369 4.27103 44.1315 4.69175L44.3905 4.2641C45.1018 4.69495 45.7924 5.15479 46.4604 5.64189L46.1658 6.0459C46.8259 6.52716 47.4635 7.03548 48.0769 7.56913L48.4051 7.1919C49.0318 7.73708 49.6337 8.30827 50.2091 8.90372L49.8495 9.25115C50.4162 9.8376 50.9566 10.4479 51.4688 11.0804L51.8574 10.7657C52.3794 11.4102 52.8727 12.0773 53.3357 12.7652L52.9208 13.0444C53.3752 13.7195 53.7996 14.415 54.1923 15.1292L54.6304 14.8883C55.0293 15.6136 55.3961 16.3579 55.729 17.1194L55.2709 17.3197C55.5959 18.0632 55.8881 18.8232 56.1455 19.5983L56.62 19.4407C56.8801 20.2239 57.1055 21.0221 57.2945 21.8336L56.8075 21.947C56.9908 22.7346 57.1391 23.5351 57.2508 24.3468L57.7461 24.2786Z" stroke="#2C666E" stroke-dasharray="2.5 2.5"/>
<path d="M10.2929 27.2929C9.90237 27.6834 9.90237 28.3166 10.2929 28.7071L16.6569 35.0711C17.0474 35.4616 17.6805 35.4616 18.0711 35.0711C18.4616 34.6805 18.4616 34.0474 18.0711 33.6569L12.4142 28L18.0711 22.3431C18.4616 21.9526 18.4616 21.3195 18.0711 20.9289C17.6805 20.5384 17.0474 20.5384 16.6569 20.9289L10.2929 27.2929ZM47 27L11 27V29L47 29V27Z" fill="#2C666E"/>
</svg>
