<svg width="24" height="18" viewBox="0 0 24 18" fill="none" xmlns="http://www.w3.org/2000/svg">
<path d="M13.9472 0.063402C13.6688 -0.0427283 13.3408 -0.0145974 13.1008 0.140123L5.3184 5.11546H1.6C0.718399 5.11546 0 5.68959 0 6.39414V11.5089C0 12.2147 0.718399 12.7875 1.6 12.7875H5.3184L13.0992 17.7629C13.2448 17.8549 13.4224 17.9023 13.6 17.9023C13.7184 17.9023 13.8368 17.8805 13.9472 17.8383C14.224 17.7322 14.4 17.5084 14.4 17.2629V0.640086C14.4 0.39458 14.224 0.170811 13.9472 0.063402Z" fill="#F0EDEE"/>
<path d="M18.4499 4.43008C18.1347 4.18202 17.6291 4.18585 17.3187 4.43519C17.0083 4.68709 17.0115 5.09116 17.3251 5.3405C18.5347 6.29439 19.2003 7.57691 19.2003 8.95149C19.2003 10.3261 18.5347 11.6086 17.3251 12.5625C17.0115 12.8093 17.0083 13.2146 17.3187 13.4665C17.4755 13.5931 17.6819 13.6557 17.8867 13.6557C18.0899 13.6557 18.2931 13.5944 18.4499 13.4703C19.9667 12.2773 20.8003 10.6713 20.8003 8.95149C20.8003 7.23166 19.9667 5.62564 18.4499 4.43008Z" fill="#F0EDEE"/>
<path d="M20.7076 2.62845C20.3924 2.3791 19.8868 2.38166 19.5748 2.63228C19.2644 2.8829 19.2676 3.28825 19.5796 3.53631C21.3988 4.97738 22.4004 6.90051 22.4004 8.95152C22.4004 11.0025 21.3988 12.9244 19.5796 14.3654C19.2676 14.6148 19.2644 15.0201 19.5748 15.2707C19.7332 15.3961 19.938 15.4587 20.1428 15.4587C20.346 15.4587 20.5508 15.3973 20.7076 15.2733C22.8324 13.5918 24.0004 11.3465 24.0004 8.95152C24.0004 6.55655 22.8324 4.31119 20.7076 2.62845Z" fill="#F0EDEE"/>
</svg>
