<svg width="19" height="22" viewBox="0 0 19 22" fill="none" xmlns="http://www.w3.org/2000/svg">
<path d="M0.678955 21.8759C0.883865 21.9684 1.11393 22.0108 1.34446 21.9984C1.57499 21.986 1.79728 21.9193 1.98746 21.8055L18.4547 11.9049C18.6229 11.8037 18.7604 11.6686 18.8554 11.5111C18.9504 11.3536 19 11.1785 19 11.0007C19 10.8229 18.9504 10.6478 18.8554 10.4903C18.7604 10.3328 18.6229 10.1977 18.4547 10.0964L1.98746 0.195928C1.79743 0.0817335 1.57504 0.0148636 1.34437 0.00255833C1.11371 -0.0097469 0.883571 0.0329815 0.678866 0.126117C0.474162 0.219253 0.302696 0.359246 0.183035 0.530939C0.0633745 0.702632 7.80081e-05 0.899483 1.72058e-08 1.10018V20.9012C-3.80866e-05 21.102 0.0632126 21.299 0.182896 21.4708C0.30258 21.6426 0.474131 21.7827 0.678955 21.8759Z" fill="black"/>
</svg>
