<svg width="19" height="22" viewBox="0 0 19 22" fill="none" xmlns="http://www.w3.org/2000/svg">
<path d="M0.543444 11.9047L17.0123 21.8046C17.2024 21.9188 17.4248 21.9856 17.6555 21.9979C17.8862 22.0102 18.1163 21.9675 18.3211 21.8744C18.5258 21.7813 18.6973 21.6413 18.8169 21.4696C18.9366 21.2979 18.9999 21.1011 19 20.9004V1.10071C19.0002 0.899939 18.937 0.702959 18.8174 0.53112C18.6979 0.359281 18.5264 0.219137 18.3216 0.125875C18.1169 0.0326142 17.8866 -0.010207 17.6558 0.00205308C17.425 0.0143131 17.2025 0.0811866 17.0123 0.195426L0.543444 10.0953C0.375663 10.1969 0.238639 10.3323 0.144024 10.4898C0.0494085 10.6473 0 10.8223 0 11C0 11.1777 0.0494085 11.3527 0.144024 11.5102C0.238639 11.6677 0.375663 11.8031 0.543444 11.9047Z" fill="black"/>
</svg>
