<svg width="18" height="20" viewBox="0 0 18 20" fill="none" xmlns="http://www.w3.org/2000/svg">
<path d="M9.00089 2.77344C8.61856 2.77344 8.30859 2.51109 8.30859 2.1875V0.585938C8.30859 0.262344 8.61856 0 9.00089 0C9.38323 0 9.69319 0.262344 9.69319 0.585938V2.1875C9.69319 2.51109 9.38323 2.77344 9.00089 2.77344Z" fill="#F0EDEE"/>
<path d="M9 0V2.77344C9.38233 2.77344 9.6923 2.51109 9.6923 2.1875V0.585938C9.6923 0.262344 9.38233 0 9 0Z" fill="#F0EDEE"/>
<path d="M12.1146 16.1719H5.88372C5.50138 16.1719 5.19141 16.4342 5.19141 16.7578C5.19141 18.5456 6.89954 20 8.99915 20C11.0987 20 12.8069 18.5456 12.8069 16.7578C12.8069 16.4342 12.4969 16.1719 12.1146 16.1719Z" fill="#F0EDEE"/>
<path d="M12.1154 16.1719H9V20C11.0995 20 12.8077 18.5456 12.8077 16.7578C12.8077 16.4342 12.4977 16.1719 12.1154 16.1719Z" fill="#F0EDEE"/>
<path d="M17.6917 13.9266L16.6154 13.3193V8.04688C16.6154 4.49293 13.1991 1.60156 9 1.60156C4.80088 1.60156 1.38462 4.49293 1.38462 8.04688V13.3193L0.308308 13.9266C0.115662 14.0352 0 14.2181 0 14.4141V16.7578C0 17.0814 0.309969 17.3438 0.692308 17.3438H17.3077C17.69 17.3438 18 17.0814 18 16.7578V14.4141C18 14.2181 17.8843 14.0352 17.6917 13.9266Z" fill="#F0EDEE"/>
<path d="M17.6917 13.9266L16.6154 13.3193V8.04688C16.6154 4.49293 13.1991 1.60156 9 1.60156V17.3438H17.3077C17.69 17.3438 18 17.0814 18 16.7578V14.4141C18 14.2181 17.8843 14.0352 17.6917 13.9266Z" fill="#F0EDEE"/>
</svg>
