<svg width="29" height="27" viewBox="0 0 29 27" fill="none" xmlns="http://www.w3.org/2000/svg">
<path d="M28.823 25.2444L20.3987 17.4011C21.9966 15.5645 22.9584 13.2297 22.9584 10.6875C22.9584 4.79446 17.8088 0 11.4792 0C5.14955 0 0 4.79446 0 10.6875C0 16.5806 5.14961 21.3751 11.4792 21.3751C14.2096 21.3751 16.7175 20.4796 18.6901 18.992L27.1144 26.8353C27.3504 27.0549 27.7329 27.0549 27.9689 26.8353L28.8231 26.0399C29.059 25.8202 29.059 25.4641 28.823 25.2444ZM11.4792 19.1251C6.48186 19.1251 2.41669 15.3403 2.41669 10.6875C2.41669 6.03483 6.48186 2.25002 11.4792 2.25002C16.4766 2.25002 20.5417 6.03483 20.5417 10.6875C20.5417 15.3403 16.4766 19.1251 11.4792 19.1251Z" fill="#F0EDEE"/>
</svg>
