<svg width="32" height="32" viewBox="0 0 32 32" fill="none" xmlns="http://www.w3.org/2000/svg">
<path d="M18.5798 31.7917C18.4465 31.8135 18.3127 31.8335 18.1785 31.8518C18.3127 31.8335 18.4465 31.8135 18.5798 31.7917Z" fill="#F0EDEE"/>
<path d="M18.8999 31.7368C18.8362 31.7486 18.7725 31.7595 18.7087 31.7706C18.7725 31.7595 18.8362 31.7486 18.8999 31.7368Z" fill="#F0EDEE"/>
<path d="M17.821 31.8965C17.665 31.9141 17.5081 31.9298 17.3506 31.943C17.5081 31.9298 17.665 31.9141 17.821 31.8965Z" fill="#F0EDEE"/>
<path d="M18.1284 31.8589C18.0535 31.8692 17.978 31.8788 17.9028 31.8878C17.978 31.8788 18.0535 31.8692 18.1284 31.8589Z" fill="#F0EDEE"/>
<path d="M19.3357 31.6509C19.2795 31.663 19.2231 31.6752 19.1667 31.6868C19.2231 31.6752 19.2795 31.663 19.3357 31.6509Z" fill="#F0EDEE"/>
<path d="M20.4165 31.3823C20.3711 31.3955 20.3257 31.408 20.2803 31.4209C20.3257 31.408 20.3711 31.3955 20.4165 31.3823Z" fill="#F0EDEE"/>
<path d="M20.0894 31.4714C20.04 31.4846 19.9905 31.498 19.9409 31.5107C19.9905 31.498 20.04 31.4849 20.0894 31.4714Z" fill="#F0EDEE"/>
<path d="M19.6621 31.5786C19.6099 31.5908 19.5571 31.6023 19.5044 31.614C19.5571 31.6023 19.6099 31.5908 19.6621 31.5786Z" fill="#F0EDEE"/>
<path d="M17.3455 31.9431C17.2612 31.9506 17.177 31.9572 17.0925 31.9631C17.177 31.9572 17.2612 31.9506 17.3455 31.9431Z" fill="#F0EDEE"/>
<path d="M32 16C32 7.16479 24.8352 0 16 0C7.16479 0 0 7.16479 0 16C0 24.8352 7.16479 32 16 32C16.094 32 16.1875 31.998 16.2812 31.9963V19.541H12.8438V15.5349H16.2812V12.5869C16.2812 9.16797 18.3684 7.30713 21.4182 7.30713C22.8787 7.30713 24.134 7.41602 24.5 7.4646V11.0378H22.397C20.7378 11.0378 20.4165 11.8264 20.4165 12.9834V15.5349H24.3838L23.8667 19.541H20.4165V31.3818C27.1042 29.4646 32 23.3032 32 16Z" fill="#F0EDEE"/>
<path d="M17.0571 31.9644C16.8906 31.9753 16.7234 31.984 16.5557 31.9897C16.7234 31.984 16.8906 31.9753 17.0571 31.9644Z" fill="#F0EDEE"/>
<path d="M16.5474 31.9897C16.459 31.993 16.3704 31.9955 16.2817 31.9972C16.3704 31.9955 16.459 31.993 16.5474 31.9897Z" fill="#F0EDEE"/>
</svg>
