<svg width="32" height="26" viewBox="0 0 32 26" fill="none" xmlns="http://www.w3.org/2000/svg">
<path d="M28.712 6.42858C30.0133 5.51248 31.108 4.369 32 3.05235V3.05103C30.8093 3.56791 29.5427 3.91161 28.22 4.07818C29.58 3.27312 30.6187 2.00802 31.1067 0.483829C29.8387 1.23337 28.4387 1.76214 26.9467 2.05826C25.7427 0.786553 24.0267 0 22.1547 0C18.5227 0 15.5987 2.9228 15.5987 6.50525C15.5987 7.02081 15.6427 7.51654 15.7507 7.98847C10.2973 7.72408 5.47067 5.13308 2.228 1.18446C1.66267 2.15872 1.32933 3.27312 1.32933 4.47211C1.32933 6.7247 2.49867 8.72082 4.244 9.87752C3.18933 9.85769 2.156 9.55364 1.28 9.07642V9.14781C1.28 12.3086 3.55333 14.9339 6.536 15.5394C6.00133 15.6848 5.42 15.7535 4.816 15.7535C4.396 15.7535 3.972 15.7297 3.57467 15.6425C4.424 18.2176 6.83733 20.112 9.704 20.1741C7.472 21.9045 4.63733 22.9475 1.56933 22.9475C1.032 22.9475 0.516 22.9237 0 22.8589C2.90667 24.7163 6.34933 25.7778 10.064 25.7778C21.6413 25.7778 29.1867 16.2017 28.712 6.42858Z" fill="#F0EDEE"/>
</svg>
