<svg width="80" height="79" viewBox="0 0 80 79" fill="none" xmlns="http://www.w3.org/2000/svg">
<path d="M40.001 17.124C39.1385 17.124 38.4385 17.8912 38.4385 18.8364C38.4385 19.7815 39.1385 20.5487 40.001 20.5487C40.8634 20.5487 41.5635 19.7815 41.5635 18.8364C41.5635 17.8912 40.8634 17.124 40.001 17.124Z" fill="#C3FACD"/>
<path d="M40.001 17.124C39.1385 17.124 38.4385 17.8912 38.4385 18.8364C38.4385 19.7815 39.1385 20.5487 40.001 20.5487C40.8634 20.5487 41.5635 19.7815 41.5635 18.8364C41.5635 17.8912 40.8634 17.124 40.001 17.124Z" fill="url(#paint0_linear)"/>
<path d="M14.0635 47.9474C14.9259 47.9474 15.626 47.1801 15.626 46.2349C15.626 45.2897 14.9259 44.5225 14.0635 44.5225C13.201 44.5225 12.501 45.2897 12.501 46.2349C12.501 47.1801 13.201 47.9474 14.0635 47.9474Z" fill="#C3FACD"/>
<path d="M14.0635 47.9474C14.9259 47.9474 15.626 47.1801 15.626 46.2349C15.626 45.2897 14.9259 44.5225 14.0635 44.5225C13.201 44.5225 12.501 45.2897 12.501 46.2349C12.501 47.1801 13.201 47.9474 14.0635 47.9474Z" fill="url(#paint1_linear)"/>
<path d="M52.501 0C38.4342 0 26.8888 10.629 25.9958 24.0171C12.5992 24.7536 0.000976562 35.3404 0.000976562 49.6597C0.000976562 55.6438 2.16162 61.4419 6.09473 66.036C6.87292 69.5517 5.9281 73.2782 3.58374 75.8475C3.13696 76.3371 3.0033 77.0736 3.245 77.7138C3.48669 78.3532 4.05615 78.7706 4.68848 78.7706C9.14465 78.7706 13.4391 76.8555 16.63 73.4809C19.7385 74.6421 23.7943 75.3458 27.501 75.3458C41.5659 75.3458 53.1101 64.7195 54.0055 51.334C57.277 51.1748 60.6797 50.5126 63.3719 49.5072C66.5629 52.8819 70.8573 54.797 75.3135 54.797C75.9458 54.797 76.5153 54.3796 76.757 53.7401C76.9987 53.0999 76.865 52.3635 76.4182 51.8738C74.0739 49.3046 73.129 45.5781 73.9072 42.0623C77.8403 37.4682 80.001 31.6701 80.001 25.6861C80.001 10.8075 66.4323 0 52.501 0ZM27.501 71.921C23.8132 71.921 19.611 71.1277 16.796 69.9002C16.193 69.6367 15.5039 69.8099 15.0651 70.335C13.1785 72.5953 10.7255 74.1712 8.05273 74.8956C9.52551 71.8033 9.90149 68.1577 9.00549 64.7035C8.93469 64.4312 8.80347 64.1824 8.62341 63.9797C5.07849 59.9783 3.12598 54.8926 3.12598 49.6597C3.12598 37.5926 14.2881 27.3985 27.501 27.3985C39.9778 27.3985 50.9385 36.907 50.9385 49.6597C50.9385 61.9349 40.4246 71.921 27.501 71.921V71.921ZM71.3785 40.0061C71.1985 40.2094 71.0673 40.4582 70.9965 40.7298C70.1005 44.1841 70.4764 47.8296 71.9492 50.922C69.2765 50.1982 66.8235 48.6216 64.9369 46.3614C64.498 45.8369 63.809 45.663 63.2059 45.9266C60.7664 46.9901 57.2861 47.7266 54.0006 47.9045C53.5441 41.4288 50.5967 35.3424 45.5576 30.8233H65.9385C66.8015 30.8233 67.501 30.0567 67.501 29.1109C67.501 28.165 66.8015 27.3985 65.9385 27.3985H40.7572C37.2104 25.4198 33.2279 24.266 29.1288 24.0238C30.0266 12.5226 40.1664 3.42481 52.501 3.42481C65.7139 3.42481 76.876 13.619 76.876 25.6861C76.876 30.9189 74.9235 36.0047 71.3785 40.0061V40.0061Z" fill="#C3FACD"/>
<path d="M52.501 0C38.4342 0 26.8888 10.629 25.9958 24.0171C12.5992 24.7536 0.000976562 35.3404 0.000976562 49.6597C0.000976562 55.6438 2.16162 61.4419 6.09473 66.036C6.87292 69.5517 5.9281 73.2782 3.58374 75.8475C3.13696 76.3371 3.0033 77.0736 3.245 77.7138C3.48669 78.3532 4.05615 78.7706 4.68848 78.7706C9.14465 78.7706 13.4391 76.8555 16.63 73.4809C19.7385 74.6421 23.7943 75.3458 27.501 75.3458C41.5659 75.3458 53.1101 64.7195 54.0055 51.334C57.277 51.1748 60.6797 50.5126 63.3719 49.5072C66.5629 52.8819 70.8573 54.797 75.3135 54.797C75.9458 54.797 76.5153 54.3796 76.757 53.7401C76.9987 53.0999 76.865 52.3635 76.4182 51.8738C74.0739 49.3046 73.129 45.5781 73.9072 42.0623C77.8403 37.4682 80.001 31.6701 80.001 25.6861C80.001 10.8075 66.4323 0 52.501 0ZM27.501 71.921C23.8132 71.921 19.611 71.1277 16.796 69.9002C16.193 69.6367 15.5039 69.8099 15.0651 70.335C13.1785 72.5953 10.7255 74.1712 8.05273 74.8956C9.52551 71.8033 9.90149 68.1577 9.00549 64.7035C8.93469 64.4312 8.80347 64.1824 8.62341 63.9797C5.07849 59.9783 3.12598 54.8926 3.12598 49.6597C3.12598 37.5926 14.2881 27.3985 27.501 27.3985C39.9778 27.3985 50.9385 36.907 50.9385 49.6597C50.9385 61.9349 40.4246 71.921 27.501 71.921V71.921ZM71.3785 40.0061C71.1985 40.2094 71.0673 40.4582 70.9965 40.7298C70.1005 44.1841 70.4764 47.8296 71.9492 50.922C69.2765 50.1982 66.8235 48.6216 64.9369 46.3614C64.498 45.8369 63.809 45.663 63.2059 45.9266C60.7664 46.9901 57.2861 47.7266 54.0006 47.9045C53.5441 41.4288 50.5967 35.3424 45.5576 30.8233H65.9385C66.8015 30.8233 67.501 30.0567 67.501 29.1109C67.501 28.165 66.8015 27.3985 65.9385 27.3985H40.7572C37.2104 25.4198 33.2279 24.266 29.1288 24.0238C30.0266 12.5226 40.1664 3.42481 52.501 3.42481C65.7139 3.42481 76.876 13.619 76.876 25.6861C76.876 30.9189 74.9235 36.0047 71.3785 40.0061V40.0061Z" fill="url(#paint2_linear)"/>
<path d="M40.001 44.5225H20.3135C19.4504 44.5225 18.751 45.2891 18.751 46.2349C18.751 47.1808 19.4504 47.9474 20.3135 47.9474H40.001C40.864 47.9474 41.5635 47.1808 41.5635 46.2349C41.5635 45.2891 40.864 44.5225 40.001 44.5225Z" fill="#C3FACD"/>
<path d="M40.001 44.5225H20.3135C19.4504 44.5225 18.751 45.2891 18.751 46.2349C18.751 47.1808 19.4504 47.9474 20.3135 47.9474H40.001C40.864 47.9474 41.5635 47.1808 41.5635 46.2349C41.5635 45.2891 40.864 44.5225 40.001 44.5225Z" fill="url(#paint3_linear)"/>
<path d="M40.001 54.7969H14.0635C13.2004 54.7969 12.501 55.5634 12.501 56.5093C12.501 57.4551 13.2004 58.2217 14.0635 58.2217H40.001C40.864 58.2217 41.5635 57.4551 41.5635 56.5093C41.5635 55.5634 40.864 54.7969 40.001 54.7969Z" fill="#C3FACD"/>
<path d="M40.001 54.7969H14.0635C13.2004 54.7969 12.501 55.5634 12.501 56.5093C12.501 57.4551 13.2004 58.2217 14.0635 58.2217H40.001C40.864 58.2217 41.5635 57.4551 41.5635 56.5093C41.5635 55.5634 40.864 54.7969 40.001 54.7969Z" fill="url(#paint4_linear)"/>
<path d="M65.9385 17.124H46.251C45.3879 17.124 44.6885 17.8906 44.6885 18.8364C44.6885 19.7822 45.3879 20.5487 46.251 20.5487H65.9385C66.8015 20.5487 67.501 19.7822 67.501 18.8364C67.501 17.8906 66.8015 17.124 65.9385 17.124Z" fill="#C3FACD"/>
<path d="M65.9385 17.124H46.251C45.3879 17.124 44.6885 17.8906 44.6885 18.8364C44.6885 19.7822 45.3879 20.5487 46.251 20.5487H65.9385C66.8015 20.5487 67.501 19.7822 67.501 18.8364C67.501 17.8906 66.8015 17.124 65.9385 17.124Z" fill="url(#paint5_linear)"/>
<defs>
<linearGradient id="paint0_linear" x1="40.001" y1="17.124" x2="40.001" y2="20.5487" gradientUnits="userSpaceOnUse">
<stop stop-color="#2C666E"/>
<stop offset="1" stop-color="white" stop-opacity="0"/>
</linearGradient>
<linearGradient id="paint1_linear" x1="14.0635" y1="44.5225" x2="14.0635" y2="47.9474" gradientUnits="userSpaceOnUse">
<stop stop-color="#2C666E"/>
<stop offset="1" stop-color="white" stop-opacity="0"/>
</linearGradient>
<linearGradient id="paint2_linear" x1="40.001" y1="0" x2="40.001" y2="78.7706" gradientUnits="userSpaceOnUse">
<stop stop-color="#2C666E"/>
<stop offset="1" stop-color="white" stop-opacity="0"/>
</linearGradient>
<linearGradient id="paint3_linear" x1="30.1572" y1="44.5225" x2="30.1572" y2="47.9474" gradientUnits="userSpaceOnUse">
<stop stop-color="#2C666E"/>
<stop offset="1" stop-color="white" stop-opacity="0"/>
</linearGradient>
<linearGradient id="paint4_linear" x1="27.0322" y1="54.7969" x2="27.0322" y2="58.2217" gradientUnits="userSpaceOnUse">
<stop stop-color="#2C666E"/>
<stop offset="1" stop-color="white" stop-opacity="0"/>
</linearGradient>
<linearGradient id="paint5_linear" x1="56.0947" y1="17.124" x2="56.0947" y2="20.5487" gradientUnits="userSpaceOnUse">
<stop stop-color="#2C666E"/>
<stop offset="1" stop-color="white" stop-opacity="0"/>
</linearGradient>
</defs>
</svg>
