<svg width="80" height="79" viewBox="0 0 80 79" fill="none" xmlns="http://www.w3.org/2000/svg">
<path d="M41.9131 51.9501L24.742 75.4838C24.7092 75.5287 24.6751 75.5728 24.64 75.6159C23.1412 77.4523 20.3586 78.7704 17.9592 78.7704C15.7678 78.7704 13.6376 77.9383 12.0419 76.4426L0.971542 66.0771C-0.279083 64.906 -0.328927 62.9585 0.860448 61.7271C2.04982 60.4958 4.02779 60.4469 5.27842 61.6177L16.3498 71.9842C16.8279 72.4323 17.4525 72.6543 18.1094 72.6116C18.744 72.5699 19.3153 72.2866 19.7253 71.8119L36.8372 48.3594C37.8442 46.9792 39.7968 46.6643 41.1984 47.6559C42.6001 48.6474 42.9201 50.5701 41.9131 51.9501V51.9501ZM77.7247 52.9855C79.192 51.3538 80.0001 49.2558 80.0001 47.0779C80.0001 44.3046 78.6833 41.7807 76.5654 40.1579C77.3703 38.8231 77.8126 37.2849 77.8126 35.693C77.8126 30.8576 73.8173 26.9237 68.9064 26.9237H48.3479C46.7884 26.9237 44.5986 25.9421 44.3734 24.3296C44.72 22.9671 50.1543 12.2305 50.1543 12.2305C50.5228 11.1743 50.6918 10.0681 50.6568 8.94302C50.5825 6.56067 49.5809 4.32294 47.8364 2.64198C46.0928 0.961954 43.7998 0.0237829 41.3797 0.000397908C38.8114 -0.0226794 36.3937 0.958723 34.5914 2.76906C34.2695 3.11769 33.0908 4.67879 32.4481 5.66265L17.1864 29.0625C16.8033 29.6499 16.1512 30.0006 15.442 30.0006H3.12514C1.3992 30.0006 0.000135599 31.3782 0.000135599 33.0776C0.000135599 34.7769 1.3992 36.1546 3.12514 36.1546H15.442C18.2889 36.1546 20.907 34.7464 22.4453 32.3879L39.2012 6.93883C39.7833 6.42375 40.5262 6.14712 41.3183 6.1542C42.9722 6.1702 44.359 7.50592 44.4097 9.13179C44.4198 9.45595 44.3803 9.7735 44.2922 10.078C43.8417 10.9781 38.1083 22.4014 38.1083 24.2513L38.1106 24.3688C38.3194 29.7479 43.587 33.0776 48.3479 33.0776H68.9064C70.3711 33.0776 71.5626 34.2509 71.5626 35.693C71.5626 36.5457 71.1303 37.3502 70.4064 37.8448C68.9083 38.8682 68.5939 40.084 68.5939 40.9239C68.5939 42.6201 69.8565 44.0735 71.7356 44.5403C72.9029 44.8304 73.7501 45.8975 73.7501 47.0779C73.7501 48.4165 72.7426 49.601 71.5503 49.6645C68.5998 49.8213 67.8126 51.8284 67.8126 52.9895C67.8126 54.3365 68.5128 55.3919 69.8936 56.1263C69.9383 56.15 69.9875 56.1759 70.0403 56.206C70.8765 56.6802 71.3959 57.5448 71.3959 58.4627C71.3959 59.9049 70.1748 61.0781 68.6737 61.0781H67.9689C65.7784 61.0781 64.0626 62.6109 64.0626 64.5677C64.0626 65.2985 64.3243 66.6664 66.0773 67.6185C66.4111 67.7998 67.5001 68.4901 67.5001 69.7597C67.5001 70.6188 67.2381 72.6168 64.8104 72.6168H36.0939C34.3679 72.6168 32.9689 73.9944 32.9689 75.6938C32.9689 77.393 34.3679 78.7708 36.0939 78.7708H64.8104C69.9904 78.7708 73.7501 74.981 73.7501 69.7597C73.7501 68.511 73.4581 67.2953 72.9197 66.1865C75.7314 64.7042 77.6461 61.798 77.6461 58.4627C77.6461 56.9254 77.2267 55.4382 76.4687 54.1372C76.9178 53.7998 77.3384 53.4147 77.7247 52.9855V52.9855Z" fill="#BEFFC7"/>
<path d="M41.9131 51.9501L24.742 75.4838C24.7092 75.5287 24.6751 75.5728 24.64 75.6159C23.1412 77.4523 20.3586 78.7704 17.9592 78.7704C15.7678 78.7704 13.6376 77.9383 12.0419 76.4426L0.971542 66.0771C-0.279083 64.906 -0.328927 62.9585 0.860448 61.7271C2.04982 60.4958 4.02779 60.4469 5.27842 61.6177L16.3498 71.9842C16.8279 72.4323 17.4525 72.6543 18.1094 72.6116C18.744 72.5699 19.3153 72.2866 19.7253 71.8119L36.8372 48.3594C37.8442 46.9792 39.7968 46.6643 41.1984 47.6559C42.6001 48.6474 42.9201 50.5701 41.9131 51.9501V51.9501ZM77.7247 52.9855C79.192 51.3538 80.0001 49.2558 80.0001 47.0779C80.0001 44.3046 78.6833 41.7807 76.5654 40.1579C77.3703 38.8231 77.8126 37.2849 77.8126 35.693C77.8126 30.8576 73.8173 26.9237 68.9064 26.9237H48.3479C46.7884 26.9237 44.5986 25.9421 44.3734 24.3296C44.72 22.9671 50.1543 12.2305 50.1543 12.2305C50.5228 11.1743 50.6918 10.0681 50.6568 8.94302C50.5825 6.56067 49.5809 4.32294 47.8364 2.64198C46.0928 0.961954 43.7998 0.0237829 41.3797 0.000397908C38.8114 -0.0226794 36.3937 0.958723 34.5914 2.76906C34.2695 3.11769 33.0908 4.67879 32.4481 5.66265L17.1864 29.0625C16.8033 29.6499 16.1512 30.0006 15.442 30.0006H3.12514C1.3992 30.0006 0.000135599 31.3782 0.000135599 33.0776C0.000135599 34.7769 1.3992 36.1546 3.12514 36.1546H15.442C18.2889 36.1546 20.907 34.7464 22.4453 32.3879L39.2012 6.93883C39.7833 6.42375 40.5262 6.14712 41.3183 6.1542C42.9722 6.1702 44.359 7.50592 44.4097 9.13179C44.4198 9.45595 44.3803 9.7735 44.2922 10.078C43.8417 10.9781 38.1083 22.4014 38.1083 24.2513L38.1106 24.3688C38.3194 29.7479 43.587 33.0776 48.3479 33.0776H68.9064C70.3711 33.0776 71.5626 34.2509 71.5626 35.693C71.5626 36.5457 71.1303 37.3502 70.4064 37.8448C68.9083 38.8682 68.5939 40.084 68.5939 40.9239C68.5939 42.6201 69.8565 44.0735 71.7356 44.5403C72.9029 44.8304 73.7501 45.8975 73.7501 47.0779C73.7501 48.4165 72.7426 49.601 71.5503 49.6645C68.5998 49.8213 67.8126 51.8284 67.8126 52.9895C67.8126 54.3365 68.5128 55.3919 69.8936 56.1263C69.9383 56.15 69.9875 56.1759 70.0403 56.206C70.8765 56.6802 71.3959 57.5448 71.3959 58.4627C71.3959 59.9049 70.1748 61.0781 68.6737 61.0781H67.9689C65.7784 61.0781 64.0626 62.6109 64.0626 64.5677C64.0626 65.2985 64.3243 66.6664 66.0773 67.6185C66.4111 67.7998 67.5001 68.4901 67.5001 69.7597C67.5001 70.6188 67.2381 72.6168 64.8104 72.6168H36.0939C34.3679 72.6168 32.9689 73.9944 32.9689 75.6938C32.9689 77.393 34.3679 78.7708 36.0939 78.7708H64.8104C69.9904 78.7708 73.7501 74.981 73.7501 69.7597C73.7501 68.511 73.4581 67.2953 72.9197 66.1865C75.7314 64.7042 77.6461 61.798 77.6461 58.4627C77.6461 56.9254 77.2267 55.4382 76.4687 54.1372C76.9178 53.7998 77.3384 53.4147 77.7247 52.9855V52.9855Z" fill="url(#paint0_linear)"/>
<path d="M41.9131 51.9501L24.742 75.4838C24.7092 75.5287 24.6751 75.5728 24.64 75.6159C23.1412 77.4523 20.3586 78.7704 17.9592 78.7704C15.7678 78.7704 13.6376 77.9383 12.0419 76.4426L0.971542 66.0771C-0.279083 64.906 -0.328927 62.9585 0.860448 61.7271C2.04982 60.4958 4.02779 60.4469 5.27842 61.6177L16.3498 71.9842C16.8279 72.4323 17.4525 72.6543 18.1094 72.6116C18.744 72.5699 19.3153 72.2866 19.7253 71.8119L36.8372 48.3594C37.8442 46.9792 39.7968 46.6643 41.1984 47.6559C42.6001 48.6474 42.9201 50.5701 41.9131 51.9501V51.9501ZM77.7247 52.9855C79.192 51.3538 80.0001 49.2558 80.0001 47.0779C80.0001 44.3046 78.6833 41.7807 76.5654 40.1579C77.3703 38.8231 77.8126 37.2849 77.8126 35.693C77.8126 30.8576 73.8173 26.9237 68.9064 26.9237H48.3479C46.7884 26.9237 44.5986 25.9421 44.3734 24.3296C44.72 22.9671 50.1543 12.2305 50.1543 12.2305C50.5228 11.1743 50.6918 10.0681 50.6568 8.94302C50.5825 6.56067 49.5809 4.32294 47.8364 2.64198C46.0928 0.961954 43.7998 0.0237829 41.3797 0.000397908C38.8114 -0.0226794 36.3937 0.958723 34.5914 2.76906C34.2695 3.11769 33.0908 4.67879 32.4481 5.66265L17.1864 29.0625C16.8033 29.6499 16.1512 30.0006 15.442 30.0006H3.12514C1.3992 30.0006 0.000135599 31.3782 0.000135599 33.0776C0.000135599 34.7769 1.3992 36.1546 3.12514 36.1546H15.442C18.2889 36.1546 20.907 34.7464 22.4453 32.3879L39.2012 6.93883C39.7833 6.42375 40.5262 6.14712 41.3183 6.1542C42.9722 6.1702 44.359 7.50592 44.4097 9.13179C44.4198 9.45595 44.3803 9.7735 44.2922 10.078C43.8417 10.9781 38.1083 22.4014 38.1083 24.2513L38.1106 24.3688C38.3194 29.7479 43.587 33.0776 48.3479 33.0776H68.9064C70.3711 33.0776 71.5626 34.2509 71.5626 35.693C71.5626 36.5457 71.1303 37.3502 70.4064 37.8448C68.9083 38.8682 68.5939 40.084 68.5939 40.9239C68.5939 42.6201 69.8565 44.0735 71.7356 44.5403C72.9029 44.8304 73.7501 45.8975 73.7501 47.0779C73.7501 48.4165 72.7426 49.601 71.5503 49.6645C68.5998 49.8213 67.8126 51.8284 67.8126 52.9895C67.8126 54.3365 68.5128 55.3919 69.8936 56.1263C69.9383 56.15 69.9875 56.1759 70.0403 56.206C70.8765 56.6802 71.3959 57.5448 71.3959 58.4627C71.3959 59.9049 70.1748 61.0781 68.6737 61.0781H67.9689C65.7784 61.0781 64.0626 62.6109 64.0626 64.5677C64.0626 65.2985 64.3243 66.6664 66.0773 67.6185C66.4111 67.7998 67.5001 68.4901 67.5001 69.7597C67.5001 70.6188 67.2381 72.6168 64.8104 72.6168H36.0939C34.3679 72.6168 32.9689 73.9944 32.9689 75.6938C32.9689 77.393 34.3679 78.7708 36.0939 78.7708H64.8104C69.9904 78.7708 73.7501 74.981 73.7501 69.7597C73.7501 68.511 73.4581 67.2953 72.9197 66.1865C75.7314 64.7042 77.6461 61.798 77.6461 58.4627C77.6461 56.9254 77.2267 55.4382 76.4687 54.1372C76.9178 53.7998 77.3384 53.4147 77.7247 52.9855V52.9855Z" fill="url(#paint1_linear)"/>
<defs>
<linearGradient id="paint0_linear" x1="40.0001" y1="0" x2="40.0001" y2="78.7708" gradientUnits="userSpaceOnUse">
<stop stop-color="#2C666E"/>
<stop offset="1" stop-color="white" stop-opacity="0"/>
</linearGradient>
<linearGradient id="paint1_linear" x1="40.0001" y1="0" x2="40.0001" y2="78.7708" gradientUnits="userSpaceOnUse">
<stop stop-color="#2D676F" stop-opacity="0.81"/>
<stop offset="1" stop-color="white" stop-opacity="0"/>
</linearGradient>
</defs>
</svg>
