<svg width="80" height="79" viewBox="0 0 80 79" fill="none" xmlns="http://www.w3.org/2000/svg">
<path d="M79.9072 5.88039C79.734 2.75141 77.2066 0.263216 74.0288 0.0924442C67.6166 -0.252485 55.0691 0.0830597 43.071 6.19347C36.9546 9.3086 30.4858 14.5901 25.3235 20.6837C25.2599 20.7588 25.198 20.8343 25.1349 20.9096L13.4193 21.8007C11.4909 21.9474 9.7732 22.9427 8.70664 24.531L0.713828 36.4346C-0.0950781 37.6392 -0.223672 39.1468 0.369609 40.4673C0.963046 41.7879 2.18242 42.7083 3.63164 42.9293L13.5021 44.4346C13.4673 44.6235 13.4323 44.8123 13.4002 45.0012C13.0716 46.9366 13.7229 48.9265 15.1426 50.3242L28.8913 63.8618C30.0683 65.0208 31.6588 65.6597 33.2885 65.6597C33.6241 65.6597 33.9616 65.6325 34.2976 65.5773C34.4894 65.5457 34.6812 65.5113 34.873 65.477L36.4018 75.1959C36.6263 76.6228 37.561 77.8236 38.9019 78.4078C39.4599 78.6509 40.0504 78.7709 40.6382 78.7709C41.4637 78.7707 42.2833 78.5341 42.9977 78.069L55.0871 70.1989C56.7004 69.1486 57.711 67.4573 57.8597 65.5586L58.7647 54.0232C58.8412 53.9611 58.918 53.9001 58.9943 53.8375C65.1832 48.7545 70.5472 42.3852 73.7108 36.3626C79.9169 24.5484 80.2571 12.1936 79.9072 5.88039V5.88039ZM52.5019 66.3487L40.9377 73.8769L39.4477 64.4052C44.3352 62.9903 49.1701 60.7241 53.7762 57.6882L53.1866 65.2029C53.1499 65.6717 52.9002 66.0894 52.5019 66.3487V66.3487ZM32.2058 60.5983L18.4569 47.0606C18.1062 46.7151 17.944 46.2297 18.0235 45.7622C18.4323 43.3555 19.0674 41.0645 19.8537 38.9063L40.483 59.2187C37.8505 60.1472 35.4926 60.701 33.5246 61.025C33.049 61.1029 32.5566 60.9436 32.2058 60.5983V60.5983ZM13.7804 26.4024L21.4123 25.822C18.3288 30.3573 16.0273 35.1178 14.5902 39.9302L4.97086 38.4633L12.6168 27.0766C12.8802 26.6843 13.3044 26.4386 13.7804 26.4024V26.4024ZM55.9921 50.293C52.2057 53.4027 48.5302 55.652 45.1424 57.2796L21.8266 34.3221C23.9919 29.9676 26.6346 26.3415 28.923 23.6402C33.7004 18.0009 39.6421 13.1361 45.2247 10.2929C56.2363 4.68468 67.838 4.38267 73.7736 4.70083C74.5593 4.74299 75.1841 5.35823 75.2269 6.13193C75.5505 11.9763 75.2432 23.3996 69.5474 34.2421C66.66 39.7388 61.7193 45.5891 55.9921 50.293Z" fill="#BEFFC7"/>
<path d="M79.9072 5.88039C79.734 2.75141 77.2066 0.263216 74.0288 0.0924442C67.6166 -0.252485 55.0691 0.0830597 43.071 6.19347C36.9546 9.3086 30.4858 14.5901 25.3235 20.6837C25.2599 20.7588 25.198 20.8343 25.1349 20.9096L13.4193 21.8007C11.4909 21.9474 9.7732 22.9427 8.70664 24.531L0.713828 36.4346C-0.0950781 37.6392 -0.223672 39.1468 0.369609 40.4673C0.963046 41.7879 2.18242 42.7083 3.63164 42.9293L13.5021 44.4346C13.4673 44.6235 13.4323 44.8123 13.4002 45.0012C13.0716 46.9366 13.7229 48.9265 15.1426 50.3242L28.8913 63.8618C30.0683 65.0208 31.6588 65.6597 33.2885 65.6597C33.6241 65.6597 33.9616 65.6325 34.2976 65.5773C34.4894 65.5457 34.6812 65.5113 34.873 65.477L36.4018 75.1959C36.6263 76.6228 37.561 77.8236 38.9019 78.4078C39.4599 78.6509 40.0504 78.7709 40.6382 78.7709C41.4637 78.7707 42.2833 78.5341 42.9977 78.069L55.0871 70.1989C56.7004 69.1486 57.711 67.4573 57.8597 65.5586L58.7647 54.0232C58.8412 53.9611 58.918 53.9001 58.9943 53.8375C65.1832 48.7545 70.5472 42.3852 73.7108 36.3626C79.9169 24.5484 80.2571 12.1936 79.9072 5.88039V5.88039ZM52.5019 66.3487L40.9377 73.8769L39.4477 64.4052C44.3352 62.9903 49.1701 60.7241 53.7762 57.6882L53.1866 65.2029C53.1499 65.6717 52.9002 66.0894 52.5019 66.3487V66.3487ZM32.2058 60.5983L18.4569 47.0606C18.1062 46.7151 17.944 46.2297 18.0235 45.7622C18.4323 43.3555 19.0674 41.0645 19.8537 38.9063L40.483 59.2187C37.8505 60.1472 35.4926 60.701 33.5246 61.025C33.049 61.1029 32.5566 60.9436 32.2058 60.5983V60.5983ZM13.7804 26.4024L21.4123 25.822C18.3288 30.3573 16.0273 35.1178 14.5902 39.9302L4.97086 38.4633L12.6168 27.0766C12.8802 26.6843 13.3044 26.4386 13.7804 26.4024V26.4024ZM55.9921 50.293C52.2057 53.4027 48.5302 55.652 45.1424 57.2796L21.8266 34.3221C23.9919 29.9676 26.6346 26.3415 28.923 23.6402C33.7004 18.0009 39.6421 13.1361 45.2247 10.2929C56.2363 4.68468 67.838 4.38267 73.7736 4.70083C74.5593 4.74299 75.1841 5.35823 75.2269 6.13193C75.5505 11.9763 75.2432 23.3996 69.5474 34.2421C66.66 39.7388 61.7193 45.5891 55.9921 50.293Z" fill="url(#paint0_linear)"/>
<path d="M54.8012 36.3461C57.8015 36.3458 60.8031 35.2211 63.0873 32.972C65.3007 30.7927 66.5195 27.8951 66.5195 24.8132C66.5195 21.7313 65.3006 18.8337 63.0873 16.6544C58.5182 12.1554 51.0839 12.1557 46.5151 16.6544C44.3017 18.8337 43.0828 21.7313 43.0828 24.8132C43.0828 27.8951 44.3018 30.7927 46.5151 32.972C48.7998 35.2216 51.7998 36.3464 54.8012 36.3461ZM49.8293 19.9179C51.1999 18.5682 53.0004 17.8934 54.8009 17.8934C56.6015 17.8934 58.402 18.5682 59.7726 19.9179C61.1006 21.2254 61.8318 22.9639 61.8318 24.8131C61.8318 26.6622 61.1006 28.4008 59.7726 29.7084C57.0314 32.4077 52.5706 32.4075 49.8292 29.7084C48.5012 28.4008 47.7698 26.6623 47.7698 24.8132C47.7698 22.9641 48.5014 21.2254 49.8293 19.9179Z" fill="#BEFFC7"/>
<path d="M54.8012 36.3461C57.8015 36.3458 60.8031 35.2211 63.0873 32.972C65.3007 30.7927 66.5195 27.8951 66.5195 24.8132C66.5195 21.7313 65.3006 18.8337 63.0873 16.6544C58.5182 12.1554 51.0839 12.1557 46.5151 16.6544C44.3017 18.8337 43.0828 21.7313 43.0828 24.8132C43.0828 27.8951 44.3018 30.7927 46.5151 32.972C48.7998 35.2216 51.7998 36.3464 54.8012 36.3461ZM49.8293 19.9179C51.1999 18.5682 53.0004 17.8934 54.8009 17.8934C56.6015 17.8934 58.402 18.5682 59.7726 19.9179C61.1006 21.2254 61.8318 22.9639 61.8318 24.8131C61.8318 26.6622 61.1006 28.4008 59.7726 29.7084C57.0314 32.4077 52.5706 32.4075 49.8292 29.7084C48.5012 28.4008 47.7698 26.6623 47.7698 24.8132C47.7698 22.9641 48.5014 21.2254 49.8293 19.9179Z" fill="url(#paint1_linear)"/>
<path d="M2.39178 64.9146C2.99162 64.9146 3.59147 64.6893 4.04897 64.2385L11.701 56.7042C12.6163 55.8029 12.6163 54.3418 11.701 53.4406C10.7859 52.5393 9.3018 52.5393 8.38648 53.4406L0.734582 60.975C-0.180733 61.8762 -0.180733 63.3373 0.734582 64.2385C1.19208 64.6892 1.79193 64.9146 2.39178 64.9146V64.9146Z" fill="#BEFFC7"/>
<path d="M2.39178 64.9146C2.99162 64.9146 3.59147 64.6893 4.04897 64.2385L11.701 56.7042C12.6163 55.8029 12.6163 54.3418 11.701 53.4406C10.7859 52.5393 9.3018 52.5393 8.38648 53.4406L0.734582 60.975C-0.180733 61.8762 -0.180733 63.3373 0.734582 64.2385C1.19208 64.6892 1.79193 64.9146 2.39178 64.9146V64.9146Z" fill="url(#paint2_linear)"/>
<path d="M18.7137 60.3459C17.7985 59.4446 16.3145 59.4446 15.3991 60.3459L0.687583 74.8314C-0.22773 75.7327 -0.22773 77.1938 0.687583 78.095C1.14524 78.5456 1.74493 78.7709 2.34477 78.7709C2.94461 78.7709 3.54446 78.5456 4.00196 78.0949L18.7135 63.6094C19.629 62.7082 19.629 61.2471 18.7137 60.3459V60.3459Z" fill="#BEFFC7"/>
<path d="M18.7137 60.3459C17.7985 59.4446 16.3145 59.4446 15.3991 60.3459L0.687583 74.8314C-0.22773 75.7327 -0.22773 77.1938 0.687583 78.095C1.14524 78.5456 1.74493 78.7709 2.34477 78.7709C2.94461 78.7709 3.54446 78.5456 4.00196 78.0949L18.7135 63.6094C19.629 62.7082 19.629 61.2471 18.7137 60.3459V60.3459Z" fill="url(#paint3_linear)"/>
<path d="M22.4117 67.2502L14.7597 74.7847C13.8444 75.686 13.8444 77.1471 14.7597 78.0483C15.2174 78.499 15.8172 78.7244 16.4169 78.7244C17.0166 78.7244 17.6166 78.4991 18.0741 78.0483L25.7261 70.5138C26.6414 69.6125 26.6414 68.1514 25.7261 67.2502C24.811 66.3489 23.3269 66.3489 22.4117 67.2502Z" fill="#BEFFC7"/>
<path d="M22.4117 67.2502L14.7597 74.7847C13.8444 75.686 13.8444 77.1471 14.7597 78.0483C15.2174 78.499 15.8172 78.7244 16.4169 78.7244C17.0166 78.7244 17.6166 78.4991 18.0741 78.0483L25.7261 70.5138C26.6414 69.6125 26.6414 68.1514 25.7261 67.2502C24.811 66.3489 23.3269 66.3489 22.4117 67.2502Z" fill="url(#paint4_linear)"/>
<defs>
<linearGradient id="paint0_linear" x1="40.001" y1="0" x2="40.001" y2="78.7709" gradientUnits="userSpaceOnUse">
<stop stop-color="#2C666E"/>
<stop offset="1" stop-color="white" stop-opacity="0"/>
</linearGradient>
<linearGradient id="paint1_linear" x1="54.8011" y1="13.2803" x2="54.8011" y2="36.3461" gradientUnits="userSpaceOnUse">
<stop stop-color="#2C666E"/>
<stop offset="1" stop-color="white" stop-opacity="0"/>
</linearGradient>
<linearGradient id="paint2_linear" x1="6.2178" y1="52.7646" x2="6.2178" y2="64.9146" gradientUnits="userSpaceOnUse">
<stop stop-color="#2C666E"/>
<stop offset="1" stop-color="white" stop-opacity="0"/>
</linearGradient>
<linearGradient id="paint3_linear" x1="9.70062" y1="59.6699" x2="9.70062" y2="78.7709" gradientUnits="userSpaceOnUse">
<stop stop-color="#2C666E"/>
<stop offset="1" stop-color="white" stop-opacity="0"/>
</linearGradient>
<linearGradient id="paint4_linear" x1="20.2429" y1="66.5742" x2="20.2429" y2="78.7244" gradientUnits="userSpaceOnUse">
<stop stop-color="#2C666E"/>
<stop offset="1" stop-color="white" stop-opacity="0"/>
</linearGradient>
</defs>
</svg>
