<svg width="80" height="79" viewBox="0 0 80 79" fill="none" xmlns="http://www.w3.org/2000/svg">
<path d="M80.001 39.3853C80.001 49.9053 75.8402 59.7961 68.2853 67.235C60.7303 74.6738 50.6852 78.7706 40.001 78.7706C29.3168 78.7706 19.2716 74.6738 11.7167 67.235C4.16174 59.7961 0.000976562 49.9053 0.000976562 39.3853H6.25098C6.25098 57.709 21.3914 72.6167 40.001 72.6167C58.6106 72.6167 73.751 57.709 73.751 39.3853C73.751 21.0617 58.6106 6.15396 40.001 6.15396C27.8287 6.15396 16.84 12.484 10.8494 22.6158H20.3135V28.7697H0.000976562V8.76939H6.25098V18.2299C9.13733 13.7665 12.9191 9.90763 17.4198 6.87152C24.0848 2.37624 31.8931 0 40.001 0C50.6852 0 60.7303 4.09683 68.2853 11.5357C75.8402 18.9745 80.001 28.8653 80.001 39.3853ZM56.5592 39.4725L30.001 54.5833V24.361L56.5592 39.4725ZM36.251 43.9203L44.0677 39.4725L36.251 35.0247V43.9203Z" fill="#C3FACD"/>
<path d="M80.001 39.3853C80.001 49.9053 75.8402 59.7961 68.2853 67.235C60.7303 74.6738 50.6852 78.7706 40.001 78.7706C29.3168 78.7706 19.2716 74.6738 11.7167 67.235C4.16174 59.7961 0.000976562 49.9053 0.000976562 39.3853H6.25098C6.25098 57.709 21.3914 72.6167 40.001 72.6167C58.6106 72.6167 73.751 57.709 73.751 39.3853C73.751 21.0617 58.6106 6.15396 40.001 6.15396C27.8287 6.15396 16.84 12.484 10.8494 22.6158H20.3135V28.7697H0.000976562V8.76939H6.25098V18.2299C9.13733 13.7665 12.9191 9.90763 17.4198 6.87152C24.0848 2.37624 31.8931 0 40.001 0C50.6852 0 60.7303 4.09683 68.2853 11.5357C75.8402 18.9745 80.001 28.8653 80.001 39.3853ZM56.5592 39.4725L30.001 54.5833V24.361L56.5592 39.4725ZM36.251 43.9203L44.0677 39.4725L36.251 35.0247V43.9203Z" fill="url(#paint0_linear)"/>
<defs>
<linearGradient id="paint0_linear" x1="40.001" y1="0" x2="40.001" y2="78.7706" gradientUnits="userSpaceOnUse">
<stop stop-color="#2C666E"/>
<stop offset="1" stop-color="white" stop-opacity="0"/>
</linearGradient>
</defs>
</svg>
