<svg width="16" height="16" viewBox="0 0 16 16" fill="none" xmlns="http://www.w3.org/2000/svg">
<path d="M15.541 9.67446C15.3094 9.67446 15.1216 9.86219 15.1216 10.0938V13.8174C15.1208 14.5118 14.5581 15.0747 13.8636 15.0755H2.09679C1.40223 15.0747 0.839536 14.5118 0.838717 13.8174V2.88937C0.839536 2.1948 1.40223 1.63211 2.09679 1.63129H5.82024C6.05187 1.63129 6.2396 1.44356 6.2396 1.21193C6.2396 0.980301 6.05187 0.792572 5.82024 0.792572H2.09679C0.939298 0.793883 0.0013105 1.73187 0 2.88937V13.8174C0.0013105 14.9749 0.939298 15.9129 2.09679 15.9142H13.8636C15.0211 15.9129 15.9591 14.9749 15.9604 13.8174V10.094C15.9604 9.86235 15.7726 9.67446 15.541 9.67446Z" fill="#2C666E"/>
<path d="M6.55762 7.46774L12.6807 1.34445L14.6555 3.31921L8.53237 9.4425L6.55762 7.46774Z" fill="#2C666E"/>
<path d="M5.55811 10.4416L7.74041 9.83711L6.16257 8.25928L5.55811 10.4416Z" fill="#2C666E"/>
<path d="M15.2013 0.306533C14.7916 -0.102178 14.1284 -0.102178 13.7187 0.306533L13.2739 0.751283L15.2487 2.72604L15.6934 2.28129C16.1023 1.87159 16.1023 1.20832 15.6934 0.798624L15.2013 0.306533Z" fill="#2C666E"/>
</svg>
