<svg width="22" height="19" viewBox="0 0 22 19" fill="none" xmlns="http://www.w3.org/2000/svg">
<path d="M19.6283 4.91162C19.183 5.09866 18.9967 5.56388 19.2121 5.9503C19.8006 7.00589 20.099 8.14369 20.099 9.33333C20.099 13.6219 16.0802 17.1111 11.1406 17.1111C6.20108 17.1111 2.18229 13.6219 2.18229 9.33333C2.18229 5.04473 6.20108 1.55556 11.1406 1.55556C13.1875 1.55556 15.1104 2.13585 16.702 3.23359C17.088 3.50114 17.6525 3.44512 17.9606 3.10883C18.2688 2.77273 18.2043 2.2832 17.8167 2.01603C15.9325 0.715875 13.5615 0 11.1406 0C5.21338 0 0.390625 4.1872 0.390625 9.33333C0.390625 14.4795 5.21338 18.6667 11.1406 18.6667C17.0679 18.6667 21.8906 14.4795 21.8906 9.33333C21.8906 7.90728 21.5319 6.54066 20.8246 5.27298C20.6096 4.88561 20.0721 4.7242 19.6283 4.91162Z" fill="#07393C"/>
<path d="M11.1405 3.11115C10.646 3.11115 10.2446 3.45959 10.2446 3.88892V9.33337C10.2446 9.7627 10.646 10.1111 11.1405 10.1111H15.6196C16.1141 10.1111 16.5155 9.7627 16.5155 9.33337C16.5155 8.90403 16.1141 8.55559 15.6196 8.55559H12.0363V3.88892C12.0363 3.45959 11.635 3.11115 11.1405 3.11115Z" fill="#07393C"/>
</svg>
